<svg xmlns="http://www.w3.org/2000/svg" xmlns:xlink="http://www.w3.org/1999/xlink" viewBox="0 0 401.65 146.89"><defs><style>.cls-1{fill:none;}.cls-2{clip-path:url(#clip-path);}.cls-3{fill:#f0b90b;}.cls-4{fill:#1e2026;}.cls-5{clip-path:url(#clip-path-3);}</style><clipPath id="clip-path" transform="translate(-53.69 -98)"><path class="cls-1" d="M0,21A20.94,20.94,0,0,1,20.88,0H488.15A20.94,20.94,0,0,1,509,21V321a20.94,20.94,0,0,1-20.88,21H20.88A20.94,20.94,0,0,1,0,321Z"/></clipPath><clipPath id="clip-path-3" transform="translate(-53.69 -98)"><rect class="cls-1" x="262.47" y="174.98" width="67.6" height="71.58"/></clipPath></defs><title>binance white</title><g id="Слой_2" data-name="Слой 2"><g id="Слой_1-2" data-name="Слой 1"><g class="cls-2"><path class="cls-3" d="M71.88,138.33l-9.09,9.09-9.1-9.09,9.1-9.09Zm22.2-22.17,15.6,15.67,9.09-9.07-15.6-15.67L94.07,98,85,107.09,69.28,122.77l9.09,9.07Zm31.29,13.08-9.1,9.09,9.1,9.09,9.1-9.09ZM94.07,160.39l-15.6-15.57-9.2,9.09,15.6,15.57L94,178.57l9.1-9.09,15.69-15.57-9.09-9.09Zm0-13,9.09-9.09-9.09-9.09L85,138.33Zm96.27.9v-.11c0-5.89-3.2-8.89-8.3-10.87,3.2-1.8,5.79-4.6,5.79-9.58v-.11c0-7-5.59-11.48-14.6-11.48H152.65v44.23h21.1C183.74,160.39,190.34,156.4,190.34,148.32Zm-12.19-18.87c0,3.29-2.7,4.69-7,4.69h-9v-9.38h9.6c4.1,0,6.4,1.6,6.4,4.6Zm2.5,17.68c0,3.29-2.61,4.78-6.9,4.78h-11.6v-9.68h11.29c5,0,7.21,1.79,7.21,4.78Zm30.09,13.27V116.16H201v44.23Zm52.38,0V116.16h-9.6v27.26l-20.8-27.26h-9v44.23h9.6V132.34l21.48,28.16h8.31Zm54,0-19-44.52h-9l-19,44.52H280l4.1-9.88h18.69l4.1,9.88Zm-17.69-18.47H287.6l5.9-14.37Zm64.08,18.47V116.16h-9.58v27.26l-20.8-27.26h-9v44.23h9.6V132.34l21.48,28.16h8.3Zm50.39-7.08-6.2-6.29c-3.51,3.2-6.6,5.19-11.6,5.19-7.6,0-12.78-6.29-12.78-13.87v-.09c0-7.6,5.39-13.78,12.78-13.78,4.4,0,7.91,1.9,11.29,5l6.2-7.19c-4.09-4.09-9.09-6.79-17.49-6.79-13.59,0-23.08,10.28-23.08,22.87v.11a22.36,22.36,0,0,0,22.68,22.76C404.15,161.2,409.26,158.2,413.86,153.31Zm41.48,7.08v-8.68h-24v-9.27h20.89v-8.7H431.35v-9H455v-8.68H421.66V160.3h33.68Z" transform="translate(-53.69 -98)"/></g><path class="cls-4" d="M203.64,201c0-13.51-9.68-22.21-25-22.21H152.72V244.9h11.56V223.65h13.06C191.8,223.65,203.64,215.89,203.64,201Zm-11.74.28c0,7.08-5.45,11.9-14.18,11.9H164.27v-23.8h13.44C186.35,189.35,191.89,193.4,191.89,201.25Z" transform="translate(-53.69 -98)"/><g class="cls-2"><path class="cls-4" d="M242.88,178.29h-10.7L203.23,244.9h11.84l6.76-16h31.1l6.66,16h12.23Zm5.83,40.34H226.05l11.28-26.45Z" transform="translate(-53.69 -98)"/></g><g class="cls-5"><g id="surface1"><g class="cls-2"><path class="cls-4" d="M303.72,218.53l26.11-39.78H316.59L298,208l-18.41-29.3H266l26.11,40.06V244.9h11.65Z" transform="translate(-53.69 -98)"/></g></g></g></g></g></svg>