<svg width="160" height="80" viewBox="0 0 160 80" fill="none" xmlns="http://www.w3.org/2000/svg">
<path d="M69.0103 65.6059H55.9448L64.1384 15.1221H77.2038L69.0103 65.6059Z" fill="#00579F"/>
<path d="M116.366 16.197C113.711 15.0985 109.728 14 104.639 14C91.8069 14 82.5144 21.0303 82.5144 30.9167C82.5144 38.1667 88.9306 42.341 94.0194 44.7577C99.1081 47.1743 100.878 48.9319 100.878 51.1289C100.878 54.6441 96.8956 56.182 92.9131 56.182C87.6031 56.182 84.9481 55.3032 80.7443 53.5456L78.9743 52.6668L77.2043 64.0911C80.3019 65.4093 85.8331 66.7274 91.8069 66.7274C105.524 66.7274 114.374 59.9168 114.596 49.3713C114.596 43.6592 111.056 39.0455 103.533 35.5304C98.8869 33.1137 96.2319 31.5758 96.2319 29.1591C96.2319 26.9622 98.6656 24.7652 103.754 24.7652C107.958 24.7652 111.056 25.644 113.489 26.7425L114.596 27.1819L116.366 16.197Z" fill="#00579F"/>
<path d="M133.304 47.7625C134.407 44.9336 138.599 33.6183 138.599 33.6183C138.599 33.6183 139.702 30.5719 140.364 28.8311L141.247 33.1831C141.247 33.1831 143.674 45.3688 144.335 47.7625C142.129 47.7625 135.952 47.7625 133.304 47.7625ZM149.41 15.1221H139.261C136.172 15.1221 133.745 15.9925 132.422 19.2566L113.006 65.6059H126.906C126.906 65.6059 129.112 59.2954 129.553 57.9898C131.098 57.9898 144.335 57.9898 146.321 57.9898C146.762 59.7306 147.865 65.6059 147.865 65.6059H160L149.41 15.1221Z" fill="#00579F"/>
<path d="M45.6265 15.1221L32.8345 49.5724L31.5112 42.639C29.0852 34.6223 21.807 25.9555 13.426 21.6222L25.1152 65.6059H39.01L59.3007 15.1221H45.6265Z" fill="#00579F"/>
<path d="M20.886 15.1221H0.217563L0 16.2263C16.0997 20.4223 26.7602 30.8017 31.329 43.1686L26.7602 19.5389C25.89 16.2263 23.7144 15.343 20.886 15.1221Z" fill="#FAA61A"/>
</svg>
