<?xml version="1.0" standalone="no"?>
<!DOCTYPE svg PUBLIC "-//W3C//DTD SVG 20010904//EN"
 "http://www.w3.org/TR/2001/REC-SVG-20010904/DTD/svg10.dtd">
<svg version="1.0" xmlns="http://www.w3.org/2000/svg"
 width="211.000000pt" height="211.000000pt" viewBox="0 0 211.000000 211.000000"
 preserveAspectRatio="xMidYMid meet">
<metadata>
Created by potrace 1.14, written by Peter Selinger 2001-2017
</metadata>
<g transform="translate(0.000000,211.000000) scale(0.100000,-0.100000)"
fill="#000000" stroke="none">
<path d="M670 1600 c0 -11 -4 -20 -10 -20 -5 0 -10 7 -10 15 0 27 -18 16 -41
-25 -13 -22 -25 -40 -28 -40 -3 0 -17 16 -31 35 -14 19 -29 35 -33 35 -5 0
-16 -18 -24 -40 -9 -22 -19 -40 -23 -40 -3 0 -19 14 -35 30 -34 36 -45 38 -45
8 l0 -21 -23 21 c-34 32 -39 27 -21 -17 9 -22 23 -71 33 -109 l17 -70 -24 -47
c-19 -39 -23 -58 -19 -109 2 -33 7 -71 11 -83 7 -20 5 -21 -39 -18 -38 2 -49
-1 -59 -19 -7 -11 -22 -36 -33 -55 l-20 -33 -28 51 c-16 28 -31 51 -34 52 -3
0 -30 2 -58 3 l-53 2 -1 -40 c-1 -144 3 -302 9 -308 4 -4 32 -9 62 -10 l55 -3
-1 48 c-1 26 0 47 1 47 1 0 15 -19 30 -42 l27 -41 24 39 24 39 0 -38 c0 -43 5
-46 76 -50 l51 -2 0 142 c0 79 2 146 6 149 4 4 13 2 20 -4 13 -11 45 -20 79
-21 14 -1 7 -22 -38 -116 -30 -63 -54 -122 -54 -129 0 -9 15 -15 44 -18 59 -4
87 3 100 27 6 11 12 22 13 24 2 2 24 5 49 6 39 1 47 -2 54 -21 5 -12 14 -25
20 -29 13 -8 110 -9 118 -1 3 3 -18 55 -46 115 -29 59 -52 111 -52 114 0 6 69
-9 78 -18 4 -3 0 -10 -7 -14 -9 -6 -10 -11 -2 -15 6 -4 9 -12 6 -17 -16 -24
54 -131 104 -159 12 -6 7 -15 -22 -43 -20 -19 -37 -39 -37 -45 0 -25 23 -21
63 11 23 19 52 40 65 46 l22 12 -26 -58 c-14 -32 -31 -84 -39 -116 -12 -50
-11 -59 2 -72 21 -22 47 -15 49 13 4 48 3 47 24 24 34 -36 85 -26 139 27 17
17 31 26 31 21 0 -5 9 -14 20 -20 31 -17 93 5 131 45 32 34 33 34 47 13 20
-29 82 -19 131 20 32 26 39 28 55 16 35 -25 88 11 128 90 13 26 23 35 30 28 7
-7 3 -20 -13 -41 -29 -39 -16 -56 35 -47 37 7 56 29 56 65 0 26 25 39 109 55
73 14 161 7 186 -14 8 -7 19 -9 25 -5 18 11 11 34 -15 51 -44 29 -157 20 -258
-22 -47 -19 -63 -21 -69 -12 -13 21 -9 46 9 57 29 16 7 24 -32 11 -31 -10 -41
-22 -71 -84 -18 -40 -45 -83 -58 -95 l-25 -23 15 48 c8 27 24 62 35 77 11 16
18 34 16 42 -3 7 1 22 10 34 20 29 10 51 -19 46 -13 -3 -24 -9 -26 -15 -5 -15
-32 -12 -38 5 -5 12 -13 9 -40 -15 -39 -34 -51 -36 -82 -14 -25 17 -27 32 -10
68 7 18 22 28 46 32 31 6 39 3 57 -20 11 -14 23 -26 27 -26 3 0 22 15 43 34
l37 34 -26 35 c-76 99 -252 85 -302 -25 -9 -20 -16 -48 -16 -62 0 -14 -4 -23
-9 -20 -24 15 39 -101 71 -130 l38 -34 -27 -29 c-16 -15 -34 -39 -40 -51 -7
-13 -29 -41 -48 -63 -41 -45 -73 -52 -73 -16 0 19 9 28 40 40 64 25 82 97 25
97 -50 0 -92 -34 -137 -111 -32 -54 -79 -102 -89 -92 -4 4 -10 20 -14 34 -5
20 -1 29 19 42 36 24 84 78 97 109 10 24 17 27 67 30 l55 3 0 151 c0 153 -6
209 -23 199 -5 -3 -11 -1 -15 5 -3 5 12 35 33 65 28 39 41 51 46 40 8 -21 23
-19 31 5 4 13 15 20 32 20 25 0 25 1 10 18 -10 10 -17 31 -17 46 0 23 -2 25
-19 16 -14 -7 -28 -7 -46 0 -26 10 -27 9 -21 -14 4 -16 0 -30 -9 -40 -19 -19
-19 -26 0 -26 20 0 19 -4 -12 -51 -25 -38 -28 -39 -39 -22 -7 10 -22 27 -32
38 -11 11 -22 32 -26 47 -3 15 -17 39 -30 54 -19 23 -33 28 -76 30 -81 4 -350
46 -369 59 -5 3 -9 55 -8 115 2 82 -1 110 -10 110 -7 0 -13 -9 -13 -20z m484
-714 c-1 -53 -4 -96 -8 -96 -3 0 -10 0 -14 0 -11 0 -9 157 2 189 14 41 21 7
20 -93z m-210 24 c0 -19 -6 -36 -12 -38 -14 -4 -27 41 -18 64 10 27 30 10 30
-26z m160 -148 c-1 -7 -2 -20 -2 -31 -2 -21 -83 -111 -100 -111 -14 0 46 129
68 147 17 14 35 11 34 -5z m347 -55 l-21 -21 0 21 c0 12 8 26 18 32 26 15 28
-7 3 -32z m83 21 c-33 -60 -101 -118 -118 -101 -17 18 -3 44 31 58 20 8 43 24
50 35 15 22 49 28 37 8z m-244 -12 c0 -17 -50 -79 -57 -72 -7 6 39 86 49 86 4
0 8 -6 8 -14z m434 -1 c-6 -16 -24 -21 -24 -7 0 11 11 22 21 22 5 0 6 -7 3
-15z"/>
</g>
</svg>
